<svg aria-hidden="true" style="width:0;height:0;position:absolute;overflow:hidden" xmlns="http://www.w3.org/2000/svg"><defs><symbol id="telegram" viewBox="0 0 28 28"><path d="m18.578 20.422 2.297-10.828c.203-.953-.344-1.328-.969-1.094l-13.5 5.203c-.922.359-.906.875-.156 1.109l3.453 1.078 8.016-5.047c.375-.25.719-.109.438.141l-6.484 5.859-.25 3.563c.359 0 .516-.156.703-.344l1.687-1.625 3.5 2.578c.641.359 1.094.172 1.266-.594zM28 14c0 7.734-6.266 14-14 14S0 21.734 0 14 6.266 0 14 0s14 6.266 14 14z"/></symbol><symbol id="insta" viewBox="0 0 32 32"><path fill="#198c36" style="fill:var(--color1,#198c36)" d="M26.877.981H5.122A4.512 4.512 0 0 0 .615 5.488v21.755a4.512 4.512 0 0 0 4.507 4.507h21.755a4.512 4.512 0 0 0 4.507-4.507V5.488A4.512 4.512 0 0 0 26.877.981zM16.06 24.418c-4.474 0-8.113-3.639-8.113-8.113s3.639-8.113 8.113-8.113 8.113 3.639 8.113 8.113-3.639 8.113-8.113 8.113zm9.014-14.423c-1.491 0-2.704-1.213-2.704-2.704s1.213-2.704 2.704-2.704 2.704 1.213 2.704 2.704-1.213 2.704-2.704 2.704z"/><path fill="#198c36" style="fill:var(--color1,#198c36)" d="M25.074 6.389a.902.902 0 1 0 .002 1.804.902.902 0 0 0-.002-1.804zM16.06 9.995c-3.479 0-6.31 2.831-6.31 6.31s2.831 6.31 6.31 6.31c3.479 0 6.31-2.831 6.31-6.31s-2.831-6.31-6.31-6.31z"/></symbol><symbol id="linkedin" viewBox="0 0 32 32"><path fill="#198c36" style="fill:var(--color1,#198c36)" d="M27.313 1.383H4.688C2.104 1.383 0 3.322 0 5.705v20.861c0 2.383 2.103 4.322 4.688 4.322h22.625c2.584 0 4.687-1.939 4.687-4.322V5.705c0-2.383-2.103-4.322-4.687-4.322zm-16 23.397h-3.75V12.678h3.75V24.78zm0-13.831h-3.75V7.491h3.75v3.458zM24.438 24.78h-3.75v-6.915c0-.953-.841-1.729-1.875-1.729s-1.875.776-1.875 1.729v6.915h-3.75V12.678h3.75v.652c.982-.282 1.621-.652 2.812-.652 2.543.002 4.688 2.106 4.688 4.592v7.51z"/></symbol><symbol id="twitter" viewBox="0 0 32 32"><path fill="#198c36" style="fill:var(--color1,#198c36)" d="M32 6.987c-1.19.481-2.458.8-3.78.955 1.36-.749 2.398-1.925 2.886-3.343a13.81 13.81 0 0 1-4.16 1.464c-1.204-1.182-2.92-1.914-4.792-1.914-3.632 0-6.556 2.718-6.556 6.05 0 .479.044.94.152 1.379-5.454-.245-10.28-2.655-13.522-6.327a5.731 5.731 0 0 0-.898 3.057c0 2.095 1.17 3.952 2.914 5.027a6.903 6.903 0 0 1-2.964-.745v.066c0 2.94 2.274 5.381 5.256 5.943a7.053 7.053 0 0 1-1.72.199c-.42 0-.844-.022-1.242-.103.85 2.396 3.262 4.157 6.13 4.214-2.232 1.61-5.066 2.58-8.134 2.58-.538 0-1.054-.022-1.57-.083 2.906 1.728 6.35 2.714 10.064 2.714 12.072 0 18.672-9.22 18.672-17.213 0-.267-.01-.526-.024-.782A12.58 12.58 0 0 0 32 6.985z"/></symbol><symbol id="facebook" viewBox="0 0 32 32"><path fill="#198c36" style="fill:var(--color1,#198c36)" d="M21.282 6.115h3.038V1.236c-.524-.067-2.327-.216-4.426-.216-4.38 0-7.381 2.541-7.381 7.21v4.297H7.679v5.454h4.834v13.724h5.926V17.982h4.638l.736-5.454h-5.376V8.77c.001-1.577.462-2.656 2.844-2.656z"/></symbol><symbol id="whatsapp" viewBox="0 0 32 32"><path d="M27.281 4.65C24.287 1.65 20.306 0 16.062 0 7.324 0 .212 7.112.212 15.856c0 2.794.731 5.525 2.119 7.925L.081 32l8.406-2.206a15.858 15.858 0 0 0 7.575 1.931h.006c8.738 0 15.856-7.113 15.856-15.856 0-4.238-1.65-8.219-4.644-11.219zm-11.212 24.4a13.17 13.17 0 0 1-6.713-1.837l-.481-.288-4.987 1.306 1.331-4.863-.313-.5a13.086 13.086 0 0 1-2.019-7.012c0-7.269 5.912-13.181 13.188-13.181 3.519 0 6.831 1.375 9.319 3.862a13.108 13.108 0 0 1 3.856 9.325c-.006 7.275-5.919 13.188-13.181 13.188zm7.225-9.875c-.394-.2-2.344-1.156-2.706-1.288s-.625-.2-.894.2c-.262.394-1.025 1.288-1.256 1.556-.231.262-.462.3-.856.1s-1.675-.619-3.188-1.969c-1.175-1.05-1.975-2.35-2.206-2.744s-.025-.613.175-.806c.181-.175.394-.463.594-.694s.262-.394.394-.662c.131-.262.069-.494-.031-.694s-.894-2.15-1.219-2.944c-.319-.775-.65-.669-.894-.681-.231-.012-.494-.012-.756-.012s-.694.1-1.056.494c-.363.394-1.387 1.356-1.387 3.306s1.419 3.831 1.619 4.1c.2.262 2.794 4.269 6.769 5.981.944.406 1.681.65 2.256.837.95.3 1.813.256 2.494.156.762-.113 2.344-.956 2.675-1.881s.331-1.719.231-1.881c-.094-.175-.356-.275-.756-.475z"/></symbol></defs></svg>