<svg aria-hidden="true" style="width:0;height:0;position:absolute;overflow:hidden" xmlns="http://www.w3.org/2000/svg"><defs><symbol id="telegram" viewBox="0 0 32 32"><path d="M28.401 3.831c-.312.014-.615.1-.889.21-.271.109-1.83.774-4.133 1.759s-5.296 2.266-8.262 3.538C9.183 11.88 3.352 14.382 3.352 14.382l.042-.016s-.352.118-.709.366c-.178.124-.37.285-.527.519s-.272.566-.229.916c.152 1.232 1.429 1.581 1.429 1.581l.005.003 5.697 1.95c.145.485 1.728 5.767 2.076 6.886.192.619.372.975.56 1.219.094.122.192.216.301.285a.832.832 0 0 0 .134.066h.002l.016.005-.015-.004.031.015c.02.007.033.007.059.012.652.228 1.192-.195 1.192-.195l.023-.017 3.5-3.246 5.68 4.429.071.032c.994.441 1.893.195 2.391-.21s.694-.927.694-.927l.021-.055L29.97 6.242c.107-.487.122-.907.021-1.287s-.345-.711-.652-.894a1.663 1.663 0 0 0-.94-.229zm.034 1.302c.127-.006.22.009.25.026s.043.015.071.122c.028.107.044.333-.034.686l-.003.008-4.15 21.628c-.01.022-.096.222-.294.383-.201.164-.425.292-1.02.043l-6.39-4.977-1.857-1.394L25.447 9.377a.64.64 0 0 0-.487-1.055h-.017.001a.633.633 0 0 0-.341.109l.002-.001L9.5 18.5l-5.706-1.954s-.567-.315-.594-.535c-.002-.012-.008-.001.021-.045s.103-.118.196-.182c.186-.129.397-.207.397-.207l.021-.008.021-.009s5.831-2.502 11.765-5.044c2.967-1.271 5.959-2.552 8.261-3.536s3.964-1.692 4.105-1.749c.16-.064.32-.09.446-.096zm-6.923 6.894-7.92 9.317-.034.044-.001.002a.498.498 0 0 0-.033.051l-.002.003a.632.632 0 0 0-.083.243V21.696l-1.031 4.637c-.017-.05-.029-.068-.047-.128v-.001c-.328-1.052-1.821-6.035-2.027-6.724l11.18-7.454zm-7.022 10.84 1.422 1.067-2.09 1.938.668-3.005z"/></symbol><symbol id="insta" viewBox="0 0 32 32"><path fill="#198c36" style="fill:var(--color1,#198c36)" d="M26.877.981H5.122A4.512 4.512 0 0 0 .615 5.488v21.755a4.512 4.512 0 0 0 4.507 4.507h21.755a4.512 4.512 0 0 0 4.507-4.507V5.488A4.512 4.512 0 0 0 26.877.981zM16.06 24.418c-4.474 0-8.113-3.639-8.113-8.113s3.639-8.113 8.113-8.113 8.113 3.639 8.113 8.113-3.639 8.113-8.113 8.113zm9.014-14.423c-1.491 0-2.704-1.213-2.704-2.704s1.213-2.704 2.704-2.704 2.704 1.213 2.704 2.704-1.213 2.704-2.704 2.704z"/><path fill="#198c36" style="fill:var(--color1,#198c36)" d="M25.074 6.389a.902.902 0 1 0 .002 1.804.902.902 0 0 0-.002-1.804zM16.06 9.995c-3.479 0-6.31 2.831-6.31 6.31s2.831 6.31 6.31 6.31c3.479 0 6.31-2.831 6.31-6.31s-2.831-6.31-6.31-6.31z"/></symbol><symbol id="linkedin" viewBox="0 0 32 32"><path fill="#198c36" style="fill:var(--color1,#198c36)" d="M27.313 1.383H4.688C2.104 1.383 0 3.322 0 5.705v20.861c0 2.383 2.103 4.322 4.688 4.322h22.625c2.584 0 4.687-1.939 4.687-4.322V5.705c0-2.383-2.103-4.322-4.687-4.322zm-16 23.397h-3.75V12.678h3.75V24.78zm0-13.831h-3.75V7.491h3.75v3.458zM24.438 24.78h-3.75v-6.915c0-.953-.841-1.729-1.875-1.729s-1.875.776-1.875 1.729v6.915h-3.75V12.678h3.75v.652c.982-.282 1.621-.652 2.812-.652 2.543.002 4.688 2.106 4.688 4.592v7.51z"/></symbol><symbol id="twitter" viewBox="0 0 32 32"><path fill="#198c36" style="fill:var(--color1,#198c36)" d="M32 6.987c-1.19.481-2.458.8-3.78.955 1.36-.749 2.398-1.925 2.886-3.343a13.81 13.81 0 0 1-4.16 1.464c-1.204-1.182-2.92-1.914-4.792-1.914-3.632 0-6.556 2.718-6.556 6.05 0 .479.044.94.152 1.379-5.454-.245-10.28-2.655-13.522-6.327a5.731 5.731 0 0 0-.898 3.057c0 2.095 1.17 3.952 2.914 5.027a6.903 6.903 0 0 1-2.964-.745v.066c0 2.94 2.274 5.381 5.256 5.943a7.053 7.053 0 0 1-1.72.199c-.42 0-.844-.022-1.242-.103.85 2.396 3.262 4.157 6.13 4.214-2.232 1.61-5.066 2.58-8.134 2.58-.538 0-1.054-.022-1.57-.083 2.906 1.728 6.35 2.714 10.064 2.714 12.072 0 18.672-9.22 18.672-17.213 0-.267-.01-.526-.024-.782A12.58 12.58 0 0 0 32 6.985z"/></symbol><symbol id="facebook" viewBox="0 0 32 32"><path fill="#198c36" style="fill:var(--color1,#198c36)" d="M21.282 6.115h3.038V1.236c-.524-.067-2.327-.216-4.426-.216-4.38 0-7.381 2.541-7.381 7.21v4.297H7.679v5.454h4.834v13.724h5.926V17.982h4.638l.736-5.454h-5.376V8.77c.001-1.577.462-2.656 2.844-2.656z"/></symbol><symbol id="whatsapp" viewBox="0 0 32 32"><path d="M27.281 4.65C24.287 1.65 20.306 0 16.062 0 7.324 0 .212 7.112.212 15.856c0 2.794.731 5.525 2.119 7.925L.081 32l8.406-2.206a15.858 15.858 0 0 0 7.575 1.931h.006c8.738 0 15.856-7.113 15.856-15.856 0-4.238-1.65-8.219-4.644-11.219zm-11.212 24.4a13.17 13.17 0 0 1-6.713-1.837l-.481-.288-4.987 1.306 1.331-4.863-.313-.5a13.086 13.086 0 0 1-2.019-7.012c0-7.269 5.912-13.181 13.188-13.181 3.519 0 6.831 1.375 9.319 3.862a13.108 13.108 0 0 1 3.856 9.325c-.006 7.275-5.919 13.188-13.181 13.188zm7.225-9.875c-.394-.2-2.344-1.156-2.706-1.288s-.625-.2-.894.2c-.262.394-1.025 1.288-1.256 1.556-.231.262-.462.3-.856.1s-1.675-.619-3.188-1.969c-1.175-1.05-1.975-2.35-2.206-2.744s-.025-.613.175-.806c.181-.175.394-.463.594-.694s.262-.394.394-.662c.131-.262.069-.494-.031-.694s-.894-2.15-1.219-2.944c-.319-.775-.65-.669-.894-.681-.231-.012-.494-.012-.756-.012s-.694.1-1.056.494c-.363.394-1.387 1.356-1.387 3.306s1.419 3.831 1.619 4.1c.2.262 2.794 4.269 6.769 5.981.944.406 1.681.65 2.256.837.95.3 1.813.256 2.494.156.762-.113 2.344-.956 2.675-1.881s.331-1.719.231-1.881c-.094-.175-.356-.275-.756-.475z"/></symbol><symbol id="cross" viewBox="0 0 32 32"><path d="M19.141 16.123 29.817 5.455a2.196 2.196 0 0 0-3.098-3.095L16.043 12.918 5.301 2.184a2.202 2.202 0 0 0-2.983.115 2.193 2.193 0 0 0-.115 2.98l10.72 10.844L2.422 26.484a2.203 2.203 0 0 0-.767 1.582c-.012.302.039.604.15.885.11.282.278.538.492.751s.47.381.752.492a2.203 2.203 0 0 0 2.47-.615l10.479-10.471 10.413 10.405a2.202 2.202 0 0 0 2.983-.115 2.194 2.194 0 0 0 .115-2.979L19.14 16.124z"/></symbol><symbol id="check" viewBox="0 0 24 24"><path d="M19.293 5.293 9 15.586l-4.293-4.293a.999.999 0 1 0-1.414 1.414l5 5a.999.999 0 0 0 1.414 0l11-11a.999.999 0 1 0-1.414-1.414z"/></symbol></defs></svg>