<svg aria-hidden="true" style="position: absolute; width: 0; height: 0; overflow: hidden;" version="1.1"
    xmlns="http://www.w3.org/2000/svg" xmlns:xlink="http://www.w3.org/1999/xlink">
    <defs>
        <symbol id="telegram" viewBox="0 0 28 28">
            <path
                d="M18.578 20.422l2.297-10.828c0.203-0.953-0.344-1.328-0.969-1.094l-13.5 5.203c-0.922 0.359-0.906 0.875-0.156 1.109l3.453 1.078 8.016-5.047c0.375-0.25 0.719-0.109 0.438 0.141l-6.484 5.859-0.25 3.563c0.359 0 0.516-0.156 0.703-0.344l1.687-1.625 3.5 2.578c0.641 0.359 1.094 0.172 1.266-0.594zM28 14c0 7.734-6.266 14-14 14s-14-6.266-14-14 6.266-14 14-14 14 6.266 14 14z">
            </path>
        </symbol>
        <symbol id="insta" viewBox="0 0 32 32">
            <path fill="#198c36" style="fill: var(--color1, #198c36)"
                d="M26.877 0.981h-21.755c-2.485 0-4.507 2.022-4.507 4.507v21.755c0 2.485 2.022 4.507 4.507 4.507h21.755c2.485 0 4.507-2.022 4.507-4.507v-21.755c0-2.485-2.022-4.507-4.507-4.507zM16.060 24.418c-4.474 0-8.113-3.639-8.113-8.113s3.639-8.113 8.113-8.113c4.474 0 8.113 3.639 8.113 8.113s-3.639 8.113-8.113 8.113zM25.074 9.995c-1.491 0-2.704-1.213-2.704-2.704s1.213-2.704 2.704-2.704c1.491 0 2.704 1.213 2.704 2.704s-1.213 2.704-2.704 2.704z">
            </path>
            <path fill="#198c36" style="fill: var(--color1, #198c36)"
                d="M25.074 6.389c-0.497 0-0.901 0.404-0.901 0.901s0.404 0.901 0.901 0.901c0.497 0 0.902-0.404 0.902-0.901s-0.404-0.901-0.902-0.901z">
            </path>
            <path fill="#198c36" style="fill: var(--color1, #198c36)"
                d="M16.060 9.995c-3.479 0-6.31 2.831-6.31 6.31s2.831 6.31 6.31 6.31c3.479 0 6.31-2.831 6.31-6.31s-2.831-6.31-6.31-6.31z">
            </path>
        </symbol>
        <symbol id="linkedin" viewBox="0 0 32 32">
            <path fill="#198c36" style="fill: var(--color1, #198c36)"
                d="M27.313 1.383h-22.625c-2.584 0-4.688 1.939-4.688 4.322v20.861c0 2.383 2.103 4.322 4.688 4.322h22.625c2.584 0 4.687-1.939 4.687-4.322v-20.861c0-2.383-2.103-4.322-4.687-4.322zM11.313 24.78h-3.75v-12.102h3.75v12.102zM11.313 10.949h-3.75v-3.458h3.75v3.458zM24.438 24.78h-3.75v-6.915c0-0.953-0.841-1.729-1.875-1.729s-1.875 0.776-1.875 1.729v6.915h-3.75v-12.102h3.75v0.652c0.982-0.282 1.621-0.652 2.812-0.652 2.543 0.002 4.688 2.106 4.688 4.592v7.51z">
            </path>
        </symbol>
        <symbol id="twitter" viewBox="0 0 32 32">
            <path fill="#198c36" style="fill: var(--color1, #198c36)"
                d="M32 6.987c-1.19 0.481-2.458 0.8-3.78 0.955 1.36-0.749 2.398-1.925 2.886-3.343-1.268 0.697-2.668 1.189-4.16 1.464-1.204-1.182-2.92-1.914-4.792-1.914-3.632 0-6.556 2.718-6.556 6.050 0 0.479 0.044 0.94 0.152 1.379-5.454-0.245-10.28-2.655-13.522-6.327-0.566 0.905-0.898 1.942-0.898 3.057 0 2.095 1.17 3.952 2.914 5.027-1.054-0.018-2.088-0.301-2.964-0.745 0 0.018 0 0.042 0 0.066 0 2.94 2.274 5.381 5.256 5.943-0.534 0.135-1.116 0.199-1.72 0.199-0.42 0-0.844-0.022-1.242-0.103 0.85 2.396 3.262 4.157 6.13 4.214-2.232 1.61-5.066 2.58-8.134 2.58-0.538 0-1.054-0.022-1.57-0.083 2.906 1.728 6.35 2.714 10.064 2.714 12.072 0 18.672-9.22 18.672-17.213 0-0.267-0.010-0.526-0.024-0.782 1.302-0.852 2.396-1.916 3.288-3.14z">
            </path>
        </symbol>
        <symbol id="facebook" viewBox="0 0 32 32">
            <path fill="#198c36" style="fill: var(--color1, #198c36)"
                d="M21.282 6.115h3.038v-4.879c-0.524-0.067-2.327-0.216-4.426-0.216-4.38 0-7.381 2.541-7.381 7.21v4.297h-4.834v5.454h4.834v13.724h5.926v-13.723h4.638l0.736-5.454h-5.376v-3.758c0.001-1.577 0.462-2.656 2.844-2.656z">
            </path>
        </symbol>
        <symbol id="whatsapp" viewBox="0 0 32 32">
            <path
                d="M27.281 4.65c-2.994-3-6.975-4.65-11.219-4.65-8.738 0-15.85 7.112-15.85 15.856 0 2.794 0.731 5.525 2.119 7.925l-2.25 8.219 8.406-2.206c2.319 1.262 4.925 1.931 7.575 1.931h0.006c0 0 0 0 0 0 8.738 0 15.856-7.113 15.856-15.856 0-4.238-1.65-8.219-4.644-11.219zM16.069 29.050v0c-2.369 0-4.688-0.637-6.713-1.837l-0.481-0.288-4.987 1.306 1.331-4.863-0.313-0.5c-1.325-2.094-2.019-4.519-2.019-7.012 0-7.269 5.912-13.181 13.188-13.181 3.519 0 6.831 1.375 9.319 3.862 2.488 2.494 3.856 5.8 3.856 9.325-0.006 7.275-5.919 13.188-13.181 13.188zM23.294 19.175c-0.394-0.2-2.344-1.156-2.706-1.288s-0.625-0.2-0.894 0.2c-0.262 0.394-1.025 1.288-1.256 1.556-0.231 0.262-0.462 0.3-0.856 0.1s-1.675-0.619-3.188-1.969c-1.175-1.050-1.975-2.35-2.206-2.744s-0.025-0.613 0.175-0.806c0.181-0.175 0.394-0.463 0.594-0.694s0.262-0.394 0.394-0.662c0.131-0.262 0.069-0.494-0.031-0.694s-0.894-2.15-1.219-2.944c-0.319-0.775-0.65-0.669-0.894-0.681-0.231-0.012-0.494-0.012-0.756-0.012s-0.694 0.1-1.056 0.494c-0.363 0.394-1.387 1.356-1.387 3.306s1.419 3.831 1.619 4.1c0.2 0.262 2.794 4.269 6.769 5.981 0.944 0.406 1.681 0.65 2.256 0.837 0.95 0.3 1.813 0.256 2.494 0.156 0.762-0.113 2.344-0.956 2.675-1.881s0.331-1.719 0.231-1.881c-0.094-0.175-0.356-0.275-0.756-0.475z">
            </path>
        </symbol>

    </defs>
</svg>